<svg xmlns="http://www.w3.org/2000/svg" viewBox="0 0 468.1 107.01" role="img" aria-label="WayFound"><title>WayFound</title><defs><clipPath id="wf-clip-path"><polygon points="216.2 74 201 74 201 4.2 247.3 4.2 247.3 17.7 216.2 17.7 216.2 32 242.7 32 242.7 45.4 216.2 45.4 216.2 74" fill="none"/></clipPath><linearGradient id="wf-linear-gradient" x1="193.3" y1="39.1" x2="472.5" y2="39.1" gradientUnits="userSpaceOnUse"><stop offset="0" stop-color="#2c71f8"/><stop offset="0.13" stop-color="#296df2"/><stop offset="0.25" stop-color="#2569ec"/><stop offset="0.38" stop-color="#2264e7"/><stop offset="0.5" stop-color="#1e60e1"/><stop offset="0.63" stop-color="#1b5cdb"/><stop offset="0.75" stop-color="#1757d5"/><stop offset="0.88" stop-color="#1453d0"/><stop offset="1" stop-color="#104fca"/></linearGradient><clipPath id="wf-clip-path-2"><path d="M274.3,63.5a8.56,8.56,0,0,0,6.8-2.75q2.4-2.74,2.4-7.65V42.4q0-5-2.4-7.7a9.85,9.85,0,0,0-13.55,0q-2.44,2.7-2.45,7.7V53.1q0,4.9,2.45,7.65A8.58,8.58,0,0,0,274.3,63.5Zm0,11.7a24.94,24.94,0,0,1-13.2-3.35,21.87,21.87,0,0,1-8.45-9.55,33.61,33.61,0,0,1-3-14.6,33.21,33.21,0,0,1,3-14.6,21.94,21.94,0,0,1,8.45-9.45,27.68,27.68,0,0,1,26.4,0A21.94,21.94,0,0,1,296,33.1a33.21,33.21,0,0,1,2.95,14.6A33.61,33.61,0,0,1,296,62.3a21.87,21.87,0,0,1-8.45,9.55A24.94,24.94,0,0,1,274.3,75.2Z" fill="none"/></clipPath><linearGradient id="wf-linear-gradient-2" x1="193.3" y1="47.75" x2="472.5" y2="47.75" href="#wf-linear-gradient"/><clipPath id="wf-clip-path-3"><path d="M337.9,74V65.2h-.5a15.58,15.58,0,0,1-4.75,7q-3.45,3-9.95,3-8,0-12.2-5.4t-4.2-15.3v-33h14.8V53.2q0,4.8,1.75,7.4c1.17,1.73,3.08,2.6,5.75,2.6a11.93,11.93,0,0,0,4.45-.85,8.32,8.32,0,0,0,3.5-2.55,6.53,6.53,0,0,0,1.35-4.2V21.5h14.8V74Z" fill="none"/></clipPath><linearGradient id="wf-linear-gradient-3" x1="193.3" y1="48.35" x2="472.5" y2="48.35" href="#wf-linear-gradient"/><clipPath id="wf-clip-path-4"><path d="M378.8,74H364V21.5h14.8v8.9h.6a16.12,16.12,0,0,1,4.9-7.1q3.49-3,9.7-3,8,0,12.2,5.44t4.2,15.36V74H395.6V42.3q0-5-1.6-7.48t-5.7-2.52a12.21,12.21,0,0,0-4.54.85,8.57,8.57,0,0,0-3.56,2.56A6.61,6.61,0,0,0,378.8,40Z" fill="none"/></clipPath><linearGradient id="wf-linear-gradient-4" x1="193.3" y1="47.15" x2="472.5" y2="47.15" href="#wf-linear-gradient"/><clipPath id="wf-clip-path-5"><path d="M443.6,63.2a13.11,13.11,0,0,0,5-.9,7.65,7.65,0,0,0,3.45-2.65,7,7,0,0,0,1.25-4.15V40a7,7,0,0,0-1.25-4.15,7.65,7.65,0,0,0-3.45-2.65,13.11,13.11,0,0,0-5-.9,9.08,9.08,0,0,0-7,3,11.22,11.22,0,0,0-2.75,8v9.1a11.24,11.24,0,0,0,2.75,7.9A9,9,0,0,0,443.6,63.2ZM453.3,74V65.2h-.5a12.48,12.48,0,0,1-5.05,7.15,15.07,15.07,0,0,1-9.05,2.85,18.88,18.88,0,0,1-11.1-3.15,19.09,19.09,0,0,1-6.8-9.3,43.27,43.27,0,0,1-2.3-15,42.85,42.85,0,0,1,2.3-15,19.09,19.09,0,0,1,6.8-9.25,18.88,18.88,0,0,1,11.1-3.15,15.23,15.23,0,0,1,9.05,2.8,12.31,12.31,0,0,1,5.05,7.2h.5V0h14.8V74Z" fill="none"/></clipPath><linearGradient id="wf-linear-gradient-5" x1="193.3" y1="37.6" x2="472.5" y2="37.6" href="#wf-linear-gradient"/></defs><g id="wf-letters"><polygon points="33.2 74 15.8 74 0 4.2 15 4.2 21.6 37.7 25.3 57.1 25.6 57.1 30 37.7 37.7 4.2 54.3 4.2 62.1 37.7 66.4 57.1 66.7 57.1 70.4 37.7 77.1 4.2 91.5 4.2 75.3 74 58 74 49.2 36.2 45.8 20.9 45.5 20.9 42 36.2 33.2 74" fill="#1a1e23"/><path d="M123.1,51.9h-7.2c-2.87,0-5,.5-6.5,1.5a5,5,0,0,0-2.2,4.4v1.5a5,5,0,0,0,1.8,4.2,8.17,8.17,0,0,0,5.1,1.4,13.45,13.45,0,0,0,4.5-.7,7.27,7.27,0,0,0,3.25-2.2,5.91,5.91,0,0,0,1.25-3.9ZM142.8,74h-8.2a10,10,0,0,1-5-1.35,9.63,9.63,0,0,1-3.75-4,13.47,13.47,0,0,1-1.4-6.35V61l3.2,3.8H124a12.16,12.16,0,0,1-5.3,7.75,18.19,18.19,0,0,1-10.1,2.65q-7.91,0-12.1-4.25A15,15,0,0,1,92.3,59.9a14.75,14.75,0,0,1,2.75-9.2,16.42,16.42,0,0,1,7.8-5.4,35.65,35.65,0,0,1,12-1.8h8.3V40.2a8.8,8.8,0,0,0-2-6.05c-1.33-1.5-3.57-2.25-6.7-2.25a11.6,11.6,0,0,0-7,1.9,18.86,18.86,0,0,0-4.3,4.3l-8.8-7.8A22.82,22.82,0,0,1,102.4,23q4.91-2.65,13.1-2.65,11.1,0,16.75,4.95T137.9,39.5v23h4.9Z" fill="#1a1e23"/><path d="M173.7,46l7.7-24.5h13.8L175,82.1a21.79,21.79,0,0,1-3.35,6.65,12.53,12.53,0,0,1-5.15,4,19.62,19.62,0,0,1-7.6,1.3h-9.2V82.5h9.9l1.8-5.8L143,21.5h14.7L165.4,46l3.8,15.2h.6Z" fill="#1a1e23"/><g clip-path="url(#wf-clip-path)"><rect x="201" y="4.2" width="46.3" height="69.8" fill="url(#wf-linear-gradient)"/></g><g clip-path="url(#wf-clip-path-2)"><rect x="249.7" y="20.3" width="49.2" height="54.9" fill="url(#wf-linear-gradient-2)"/></g><g clip-path="url(#wf-clip-path-3)"><rect x="306.3" y="21.5" width="46.4" height="53.7" fill="url(#wf-linear-gradient-3)"/></g><g clip-path="url(#wf-clip-path-4)"><rect x="364" y="20.3" width="46.4" height="53.7" fill="url(#wf-linear-gradient-4)"/></g><g clip-path="url(#wf-clip-path-5)"><rect x="418.5" width="49.6" height="75.2" fill="url(#wf-linear-gradient-5)"/></g></g><g id="wf-route"><path d="M33.63,71.31A10.25,10.25,0,0,0,34,76.58a18.47,18.47,0,0,0,2.23,4.72,18.73,18.73,0,0,0,3.84,4.22,21.45,21.45,0,0,0,5.38,3.13,37,37,0,0,0,6.32,1.89,66.94,66.94,0,0,0,6.73,1.08,97.1,97.1,0,0,0,14,.44,168.62,168.62,0,0,0,28.44-3.64q3.54-.75,7.06-1.59c2.35-.57,4.69-1.19,7-1.84,4.65-1.29,9.28-2.74,13.81-4.37l5.32,22.61c-10.3,1.31-20.51,2.4-30.81,3.1a247.77,247.77,0,0,1-31.09.32c-10.44-.74-21.08-2.16-31.51-6.56a65.06,65.06,0,0,1-7.82-3.78,37.71,37.71,0,0,1-7.43-5.51,30.73,30.73,0,0,1-5.86-7.75,74.28,74.28,0,0,1-3.81-9Z" fill="#1a1e23"/><path d="M169.57,85.18l-1.19.34c1.05,1.06.35,5.9-3.4,6.13,1,2.31-.66,4.28-3.14,4.23-2.13,0-3.35,0-6.71,1.51-4.18,1.83-8.87,4.35-14.74,2.56a.84.84,0,0,0-1,.55c-.11.63.47,2.26-.93,2.62l-5.26,1.24c-1.87.44-4-2-6-10.67C125,84.61,124.28,81,128,80.12S132.73,79,132.73,79a1.56,1.56,0,0,1,1.85,1,.69.69,0,0,0,.92.09,36.9,36.9,0,0,1,8.52-4.8c3.64-1.27,4.83-2.74,7.43-3,3.08-.24,12.63-2.82,15.5-3.54s7.54-.85,13.5-2.4c5.7-1.48,7.28,5.14,2.06,6-4.12.72-4.14,1.25-5.59,1.41a38.54,38.54,0,0,0-7.07,1.78,34.93,34.93,0,0,0-4.39,1.11c1.49,0,1.64.38,3.87.82C172.63,78.32,172.25,84.38,169.57,85.18Z" fill="#1a1e23"/><path d="M134.4,91a67,67,0,0,0,3.26,10.26c.32.49,0,.92-.82,1-.57.08-3.38.76-3.38.76-1.24.3-3.05-.62-5.32-10.27-2.28-10-2.18-11.36.77-12.06l3.67-.75a.69.69,0,0,1,.6.28C133.6,80.74,132.5,81.8,134.4,91Z" fill="#fff"/><path d="M143.14,90a.58.58,0,0,0,0,.6c.49.56,1.11-.1,1.67-.28s2.9-1.18,4-.8A7.27,7.27,0,0,1,153.21,93a3.87,3.87,0,0,0,2.65,1.79c.92.07,1,1,.27,1.22-1.92.65-2.33,1.61-8.43,3-4.91.87-9.69,1-11.51-5.39-.94-3.52-2-8.53-1.86-10.44s1.58-2.28,2.73-3.26c4.87-3.6,8.52-4.31,11.36-5.68,1.11-.54,1.9-1.21,3.66-.51,3.73,1.5,7.77,1.36,8.87,1.81.75.26,1,.43,1.14.64s.94.24,1.62.58a3.94,3.94,0,0,0,1.07.35c-.37.82-1,.15-1.43,1.85a2,2,0,0,0,.41,1.18c.5.53,1.85.32,2.39.29l1.43-.08c1.29-.05,1.37-1.41,1.52-1,.76,2.22-2.41,2.47-3.45,2.54a19.52,19.52,0,0,1-3-.17c-.51-.23-2.83.24-3.19-1.39-.09-.25-.18-.85-.84-.42-.5.33-3.1.92-3.67.26a1.41,1.41,0,0,0-.89-.56c-.41-.08-.57.18-.43.59s.33,1.27-.39,1.61a1.63,1.63,0,0,1-1.5.25,5.69,5.69,0,0,0-2.07-.39c-.33.19-.54.53.38.71a1.8,1.8,0,0,1,1.06,2.86c-1.39,2.48-.75,2.5-7.32,4.28A.92.92,0,0,0,143.14,90Z" fill="#fff"/><path d="M154,87.52c-1.13-.9-1.89-1.11-1.32-2.39,0-.23.35-.3,1.21-.3.46,0,2.33,1.41,1.33,2.88C155,87.94,154.69,88.14,154,87.52Z" fill="#fff"/><path d="M153.45,91.31c-.49.3-1.91-2-1.91-2.13s0-.51,1-.84c.48-.12,1.59.62,1.73,1.67C154.41,90.74,153.55,91.26,153.45,91.31Z" fill="#fff"/><path d="M156.37,84.11c-.59-.41-1.87-1.12-1.69-1.71s.55-1.1,1.73-1a1.68,1.68,0,0,1,1.3,2.73C157.3,84.45,157.17,84.65,156.37,84.11Z" fill="#fff"/><path d="M164,91.84c1.5,3-2,3.58-3.64,3.07-2.57-.81-4.61-.68-5.6-1.4-.55-.41-1.5-1.55-.87-1.77a2.81,2.81,0,0,0,1.18-1.13c.1-.15-.28-1-.1-1s.13,1,2.55,1.52a30.27,30.27,0,0,0,4,.54,18.46,18.46,0,0,0,2.2,0C164,91.69,164,91.78,164,91.84Z" fill="#fff"/><path d="M167.07,85.85a25.83,25.83,0,0,0-3.93,1c-2.88,1-4.45.17-5.28-.52-.74-.42-1-.85-1.58-1.12s-1-.77-.52.18c.24.46.71.67.58,1.58a2.82,2.82,0,0,1-1,1.63c-.09.06-.2.1-.11.13a4.43,4.43,0,0,0,3.58,1.71c3.48.07,5.12.54,5.84.5a1.74,1.74,0,0,0,.46-.1,2.66,2.66,0,0,0,1.58-.88c.26-.33,1.6-2.14.75-3.8C167.35,85.94,167.21,85.81,167.07,85.85Z" fill="#fff"/><path d="M170.2,79.28c.23-.06,1.47,3.4-.79,4.89-1.11.73-1.85.56-3,.89-2.11.39-3.74.93-4.58,1.11a3.91,3.91,0,0,1-3.12-.33c-.42-.28-1.31-.67-.85-1a1.9,1.9,0,0,0,1-1.39c.32-1.21-.6-1.76.13-1.63a4.52,4.52,0,0,1,1.39.42c2.74,1.11,10.62,1.14,9.57-2.57C169.87,79.39,170.06,79.14,170.2,79.28Z" fill="#fff"/><path d="M165.81,77.59a2.18,2.18,0,0,1,1.12.13c.52.08,2.27,0,1.72,1.14s-3,.85-3.88.78a.69.69,0,0,1-.62-.56C164.08,78.78,164.1,78,165.81,77.59Z" fill="#fff"/><path d="M176.8,68.15c-1.83.46-6.31.49-8.45,1.46-2.87.14-7.49,1.8-9.1,2a49,49,0,0,0-6.43,1.51,24.36,24.36,0,0,0,6.78,1.31,5,5,0,0,1,3.53,1.36c2.45-.17,5.93-.82,6-1.19,0-.17,0-.37.5-.38s.22.14,1,0c3.74-.77,5.7-1.3,5.7-1.3.81-.24.46-.48.74-.63s.11.19,1,.08a36.16,36.16,0,0,0,5-1c2.93-.63,2.56-5.19-2.41-4.23C177.23,67.84,177.33,68.13,176.8,68.15Z" fill="#fff"/></g></svg>
